<?xml version="1.0" encoding="utf-8" ?>
<svg xmlns="http://www.w3.org/2000/svg" xmlns:xlink="http://www.w3.org/1999/xlink" width="96" height="101">
	<path fill="#7443FF" transform="translate(0.896088 0.547775)" d="M46.261253 0.00091026747C41.562141 0.029753376 36.836506 0.74416959 32.203705 2.1641264C30.694805 2.6374452 29.846046 4.2459893 30.317579 5.665946C30.78911 7.1805663 32.393425 8.0325403 33.808022 7.5592217C56.347248 0.6487655 80.01815 12.766839 87.56266 35.202156C87.939888 36.33812 89.070457 37.095432 90.202133 37.095432C90.485054 37.095432 90.767975 36.999657 91.145195 36.904995C92.654099 36.431675 93.40892 34.823502 92.937386 33.30888C88.976517 21.286579 80.394272 11.346513 68.9832 5.4773588C61.851276 1.8091371 54.093102 -0.047160946 46.261253 0.00091026747ZM14.239445 13.333343C13.532147 13.309677 12.824112 13.570742 12.305427 14.091393C6.8356566 19.487228 2.6858077 26.208357 0.1395352 33.497467C-0.33199671 35.012089 0.42282218 36.622112 1.9317243 37.095432C2.2146435 37.190094 2.4975626 37.284019 2.8747883 37.284019C4.006465 37.284019 5.1388788 36.526711 5.5161047 35.390743C7.6851516 28.953606 11.361995 23.084822 16.171621 18.256969C17.303297 17.121004 17.303297 15.321282 16.171621 14.279981C15.652936 13.664666 14.946743 13.357009 14.239445 13.333343ZM46.445442 13.333343C30.036133 13.333343 15.795132 24.409006 11.739957 40.312519C10.985506 43.152435 11.646387 46.08849 13.438209 48.455086C15.23003 50.821678 17.963442 52.145493 20.88694 52.145493C25.225035 52.145493 28.904089 49.210915 30.035765 45.045712C31.921892 37.472607 38.712318 32.266098 46.445442 32.266098C50.972149 32.266098 55.215202 34.065449 58.421619 37.284019C61.628036 40.502586 63.420593 44.761719 63.420593 49.30558C63.420593 51.104191 63.137306 52.903912 62.571468 54.702526L61.628403 57.448143C59.176437 64.831917 54.837608 71.551567 49.084919 76.75808C47.953239 77.799377 47.859673 79.599098 48.897041 80.735062C49.934414 81.871033 51.725494 81.964951 52.857174 80.923653C59.270008 75.054497 64.173943 67.575691 67.003128 59.245277L67.946198 56.501507C68.700645 54.134911 69.078979 51.766838 69.078979 49.30558C69.078979 36.809959 58.893887 26.586273 46.445442 26.586273C36.071743 26.586273 27.111898 33.591393 24.471319 43.625751C24.094093 45.235039 22.584824 46.465668 20.793001 46.465668C19.567019 46.465668 18.530386 45.898052 17.775934 44.951416C17.021484 44.004776 16.831766 42.868443 17.114685 41.732479C20.509714 28.29022 32.580933 19.01317 46.349663 19.01317C54.365707 19.01317 62.005997 22.137444 67.664383 27.911934C73.322762 33.686424 76.52771 41.259159 76.52771 49.30558C76.52771 52.524147 76.056541 55.744194 75.019173 58.868099L74.170052 61.61187C69.831955 74.675476 60.968628 85.846909 49.274635 93.041359C47.954346 93.893326 47.482815 95.596909 48.33157 96.922203C48.897411 97.774178 49.840107 98.247864 50.783169 98.247864C51.254704 98.247864 51.820171 98.152832 52.291702 97.868835C65.117371 90.011742 74.831299 77.705452 79.546616 63.316559L80.395744 60.665234C81.621727 56.973347 82.281868 53.186794 82.281868 49.30558C82.281868 29.426186 66.249786 13.333343 46.445442 13.333343ZM46.754887 39.829956C45.234383 39.77264 43.71019 40.075863 42.295593 40.785839C40.032242 41.921806 38.334728 43.815819 37.580276 46.277077L36.731148 48.928402C33.996265 56.690834 26.829348 61.896603 18.718998 61.896603C17.115789 61.896603 15.889807 63.127232 15.889807 64.736519C15.889807 66.345802 17.115789 67.576431 18.718998 67.576431C29.281313 67.576431 38.616909 60.854561 42.01194 50.725536L42.861065 48.076061C43.143982 47.129421 43.804127 46.371372 44.747192 45.898052C45.690258 45.424732 46.63295 45.330811 47.670322 45.709465C49.650757 46.372112 50.688126 48.549007 50.027981 50.536949L49.084919 53.188274C44.746822 66.346542 32.487732 75.149529 18.718998 75.149529C17.115789 75.149529 15.889807 76.380157 15.889807 77.989449C15.889807 79.598732 17.115789 80.829361 18.718998 80.829361C34.939697 80.829361 49.368942 70.41597 54.461487 54.891113L55.404549 52.241634C57.007759 47.319118 54.366444 41.921806 49.462513 40.312519C48.578388 40.02853 47.667191 39.864346 46.754887 39.829956ZM35.504429 85.416481C35.133099 85.397255 34.750717 85.444214 34.373489 85.562546C31.449991 86.603851 28.338249 87.455826 25.320446 87.929138C23.811543 88.118469 22.679867 89.633461 22.962786 91.148079C23.1514 92.568039 24.377382 93.608971 25.791977 93.608971L26.169571 93.608971C29.658907 93.135651 33.052834 92.188271 36.353554 90.957642C37.862457 90.389664 38.523338 88.781853 38.051807 87.267235C37.62743 86.131271 36.618423 85.474167 35.504429 85.416481Z"/>
	<path fill="none" stroke="#7443FF" stroke-width="1" stroke-miterlimit="10" transform="translate(0.896088 0.547775)" d="M46.261253 0.00091026747C41.562141 0.029753376 36.836506 0.74416959 32.203705 2.1641264C30.694805 2.6374452 29.846046 4.2459893 30.317579 5.665946C30.78911 7.1805663 32.393425 8.0325403 33.808022 7.5592217C56.347248 0.6487655 80.01815 12.766839 87.56266 35.202156C87.939888 36.33812 89.070457 37.095432 90.202133 37.095432C90.485054 37.095432 90.767975 36.999657 91.145195 36.904995C92.654099 36.431675 93.40892 34.823502 92.937386 33.30888C88.976517 21.286579 80.394272 11.346513 68.9832 5.4773588C61.851276 1.8091371 54.093102 -0.047160946 46.261253 0.00091026747ZM14.239445 13.333343C13.532147 13.309677 12.824112 13.570742 12.305427 14.091393C6.8356566 19.487228 2.6858077 26.208357 0.1395352 33.497467C-0.33199671 35.012089 0.42282218 36.622112 1.9317243 37.095432C2.2146435 37.190094 2.4975626 37.284019 2.8747883 37.284019C4.006465 37.284019 5.1388788 36.526711 5.5161047 35.390743C7.6851516 28.953606 11.361995 23.084822 16.171621 18.256969C17.303297 17.121004 17.303297 15.321282 16.171621 14.279981C15.652936 13.664666 14.946743 13.357009 14.239445 13.333343ZM46.445442 13.333343C30.036133 13.333343 15.795132 24.409006 11.739957 40.312519C10.985506 43.152435 11.646387 46.08849 13.438209 48.455086C15.23003 50.821678 17.963442 52.145493 20.88694 52.145493C25.225035 52.145493 28.904089 49.210915 30.035765 45.045712C31.921892 37.472607 38.712318 32.266098 46.445442 32.266098C50.972149 32.266098 55.215202 34.065449 58.421619 37.284019C61.628036 40.502586 63.420593 44.761719 63.420593 49.30558C63.420593 51.104191 63.137306 52.903912 62.571468 54.702526L61.628403 57.448143C59.176437 64.831917 54.837608 71.551567 49.084919 76.75808C47.953239 77.799377 47.859673 79.599098 48.897041 80.735062C49.934414 81.871033 51.725494 81.964951 52.857174 80.923653C59.270008 75.054497 64.173943 67.575691 67.003128 59.245277L67.946198 56.501507C68.700645 54.134911 69.078979 51.766838 69.078979 49.30558C69.078979 36.809959 58.893887 26.586273 46.445442 26.586273C36.071743 26.586273 27.111898 33.591393 24.471319 43.625751C24.094093 45.235039 22.584824 46.465668 20.793001 46.465668C19.567019 46.465668 18.530386 45.898052 17.775934 44.951416C17.021484 44.004776 16.831766 42.868443 17.114685 41.732479C20.509714 28.29022 32.580933 19.01317 46.349663 19.01317C54.365707 19.01317 62.005997 22.137444 67.664383 27.911934C73.322762 33.686424 76.52771 41.259159 76.52771 49.30558C76.52771 52.524147 76.056541 55.744194 75.019173 58.868099L74.170052 61.61187C69.831955 74.675476 60.968628 85.846909 49.274635 93.041359C47.954346 93.893326 47.482815 95.596909 48.33157 96.922203C48.897411 97.774178 49.840107 98.247864 50.783169 98.247864C51.254704 98.247864 51.820171 98.152832 52.291702 97.868835C65.117371 90.011742 74.831299 77.705452 79.546616 63.316559L80.395744 60.665234C81.621727 56.973347 82.281868 53.186794 82.281868 49.30558C82.281868 29.426186 66.249786 13.333343 46.445442 13.333343ZM46.754887 39.829956C45.234383 39.77264 43.71019 40.075863 42.295593 40.785839C40.032242 41.921806 38.334728 43.815819 37.580276 46.277077L36.731148 48.928402C33.996265 56.690834 26.829348 61.896603 18.718998 61.896603C17.115789 61.896603 15.889807 63.127232 15.889807 64.736519C15.889807 66.345802 17.115789 67.576431 18.718998 67.576431C29.281313 67.576431 38.616909 60.854561 42.01194 50.725536L42.861065 48.076061C43.143982 47.129421 43.804127 46.371372 44.747192 45.898052C45.690258 45.424732 46.63295 45.330811 47.670322 45.709465C49.650757 46.372112 50.688126 48.549007 50.027981 50.536949L49.084919 53.188274C44.746822 66.346542 32.487732 75.149529 18.718998 75.149529C17.115789 75.149529 15.889807 76.380157 15.889807 77.989449C15.889807 79.598732 17.115789 80.829361 18.718998 80.829361C34.939697 80.829361 49.368942 70.41597 54.461487 54.891113L55.404549 52.241634C57.007759 47.319118 54.366444 41.921806 49.462513 40.312519C48.578388 40.02853 47.667191 39.864346 46.754887 39.829956ZM35.504429 85.416481C35.133099 85.397255 34.750717 85.444214 34.373489 85.562546C31.449991 86.603851 28.338249 87.455826 25.320446 87.929138C23.811543 88.118469 22.679867 89.633461 22.962786 91.148079C23.1514 92.568039 24.377382 93.608971 25.791977 93.608971L26.169571 93.608971C29.658907 93.135651 33.052834 92.188271 36.353554 90.957642C37.862457 90.389664 38.523338 88.781853 38.051807 87.267235C37.62743 86.131271 36.618423 85.474167 35.504429 85.416481Z"/>
</svg>
