<?xml version="1.0" encoding="utf-8" ?>
<svg xmlns="http://www.w3.org/2000/svg" xmlns:xlink="http://www.w3.org/1999/xlink" width="125" height="91">
	<path fill="none" stroke="#979797" stroke-width="6" stroke-miterlimit="10" transform="translate(2.11026 10)" d="M79.342567 3.0317039C72.319237 1.0565243 64.91127 0 57.256538 0C34.932224 0 14.70675 8.9861965 0 23.538704" fill-rule="evenodd"/>
	<path fill="none" stroke="#979797" stroke-width="6" stroke-miterlimit="10" transform="translate(18.7227 32.5455)" d="M78.770821 15.955978C68.641548 6.082623 54.799709 0 39.537197 0C24.121651 0 10.155411 6.2052131 0 16.254116" fill-rule="evenodd"/>
	<path fill="none" stroke="#979797" stroke-width="6" stroke-miterlimit="10" transform="translate(34.1486 55.091)" d="M47.919067 9.7065849C41.757072 3.700274 33.336594 0 24.05187 0C14.674051 0 6.1778946 3.7748499 0 9.8879519" fill-rule="evenodd"/>
	<path fill="#979797" transform="translate(47.2013 75.2633)" d="M10.906869 15.49459L21.813738 4.4186354C19.008673 1.6844403 15.175498 0 10.948903 0C6.6799278 0 2.8123038 1.7183888 0 4.5011973L10.906869 15.49459Z" fill-rule="evenodd"/>
	<path fill="#979797" transform="translate(89.9761 0)" d="M17.5 0C27.164984 0 35 7.8350167 35 17.5C35 27.164984 27.164984 35 17.5 35C7.8350167 35 0 27.164984 0 17.5C0 7.8350167 7.8350167 0 17.5 0ZM22.290104 10.314853L17.500057 15.103364L12.710009 10.314853L10.314969 12.709892L15.105018 17.498404L10.314909 22.290049L12.709949 24.685087L17.500057 19.893442L22.290165 24.685087L24.685204 22.290049L19.895096 17.498404L24.685144 12.709892L22.290104 10.314853Z" fill-rule="evenodd"/>
</svg>
