<?xml version="1.0" encoding="utf-8" ?>
<svg xmlns="http://www.w3.org/2000/svg" xmlns:xlink="http://www.w3.org/1999/xlink" width="93" height="93">
	<path fill="none" stroke="#4ECF17" stroke-width="6" stroke-miterlimit="10" transform="translate(2.99998 3)" d="M0 71.339058C0 53.504292 14.592079 38.912212 32.426842 38.912212C44.366409 38.912212 54.853249 45.452705 60.479305 55.125633M32.426842 0C21.680588 0 12.970737 8.7098503 12.970737 19.456106C12.970737 30.202362 21.680588 38.912212 32.426842 38.912212C43.1731 38.912212 51.88295 30.202362 51.88295 19.456106C51.88295 8.7098503 43.1731 0 32.426842 0Z" fill-rule="evenodd"/>
	<path fill="#4ECF17" transform="translate(50.6254 50.6254)" d="M0 41.89632L3.2918539 26.03557L26.63409 2.6933348C28.429646 0.89777833 30.674091 0 32.918537 0C35.162983 0 37.407429 0.89777833 39.202988 2.6933348C40.998543 4.4888916 41.89632 6.7333374 41.89632 8.9777832C41.89632 11.222229 40.998543 13.466675 39.202988 15.262231L15.86075 38.604465L0 41.89632ZM8.678524 29.028166L7.7807455 34.115574L12.868155 33.217796L35.013355 11.072599C36.210392 9.8755617 36.210392 8.0800047 35.013355 6.882967C33.816315 5.6859293 32.02076 5.6859293 30.823721 6.882967L8.678524 29.028166Z"/>
</svg>
